<svg width="75" height="31" viewBox="0 0 75 31" fill="none" xmlns="http://www.w3.org/2000/svg">
  <path
    d="M6.864 18.24C5.392 18.24 4.144 17.928 3.12 17.304C2.096 16.664 1.32 15.768 0.792001 14.616C0.264 13.464 3.57628e-07 12.12 3.57628e-07 10.584V9.072C3.57628e-07 7.536 0.232 6.2 0.696001 5.064C1.176 3.912 1.888 3.024 2.832 2.4C3.776 1.76 4.96 1.44 6.384 1.44C7.6 1.44 8.616 1.68 9.432 2.16C10.248 2.624 10.848 3.248 11.232 4.032C11.632 4.8 11.8 5.64 11.736 6.552L8.928 7.248C9.088 5.648 8.92 4.424 8.424 3.576C7.944 2.712 7.224 2.28 6.264 2.28C5.24 2.28 4.448 2.712 3.888 3.576C3.344 4.44 3.072 5.872 3.072 7.872V11.784C3.072 13.768 3.384 15.2 4.008 16.08C4.632 16.96 5.584 17.4 6.864 17.4C7.392 17.4 7.88 17.304 8.328 17.112C8.792 16.92 9.176 16.592 9.48 16.128C9.8 15.648 10 14.976 10.08 14.112L11.808 14.568C11.584 15.464 11.224 16.184 10.728 16.728C10.232 17.272 9.648 17.664 8.976 17.904C8.32 18.128 7.616 18.24 6.864 18.24ZM13.2883 6.504V5.832H17.7523V7.8C18.7283 6.328 19.8883 5.592 21.2323 5.592C21.7283 5.592 22.2083 5.752 22.6723 6.072C23.1363 6.376 23.5203 6.952 23.8243 7.8L21.6883 8.952C21.4643 8.296 21.2003 7.856 20.8963 7.632C20.6083 7.392 20.2963 7.272 19.9603 7.272C19.6083 7.272 19.2643 7.384 18.9283 7.608C18.5923 7.832 18.2483 8.248 17.8963 8.856V15.984C17.8963 16.528 17.9203 16.856 17.9683 16.968C18.0163 17.064 18.1683 17.128 18.4243 17.16L20.2243 17.328V18H13.2883V17.328L14.6083 17.16C14.8643 17.128 15.0163 17.064 15.0643 16.968C15.1123 16.856 15.1363 16.528 15.1363 15.984V7.848C15.1363 7.304 15.1123 6.984 15.0643 6.888C15.0163 6.776 14.8643 6.704 14.6083 6.672L13.2883 6.504ZM27.5903 3.768C27.0943 3.768 26.6943 3.616 26.3903 3.312C26.0863 2.992 25.9343 2.584 25.9343 2.088C25.9343 1.592 26.0863 1.192 26.3903 0.887999C26.6943 0.583999 27.0943 0.431999 27.5903 0.431999C28.0703 0.431999 28.4703 0.583999 28.7903 0.887999C29.1103 1.192 29.2703 1.592 29.2703 2.088C29.2703 2.584 29.1103 2.992 28.7903 3.312C28.4703 3.616 28.0703 3.768 27.5903 3.768ZM24.3743 6.504V5.832H28.9823V15.984C28.9823 16.528 29.0063 16.856 29.0543 16.968C29.1023 17.064 29.2543 17.128 29.5103 17.16L30.8303 17.328V18H24.3743V17.328L25.6943 17.16C25.9503 17.128 26.1023 17.064 26.1503 16.968C26.1983 16.856 26.2223 16.528 26.2223 15.984V7.848C26.2223 7.304 26.1983 6.984 26.1503 6.888C26.1023 6.776 25.9503 6.704 25.6943 6.672L24.3743 6.504ZM31.5891 0.912V0.24H36.1971V11.88L40.4211 7.848C40.9811 7.32 41.2771 7 41.3091 6.888C41.3571 6.776 41.2451 6.704 40.9731 6.672L39.6531 6.504V5.832H44.5731V6.504L43.2531 6.672C43.1091 6.688 42.9891 6.72 42.8931 6.768C42.7971 6.816 42.6611 6.92 42.4851 7.08C42.3091 7.224 42.0291 7.48 41.6451 7.848L39.3411 10.056L42.7491 15.984C42.9731 16.352 43.1411 16.616 43.2531 16.776C43.3651 16.92 43.4691 17.016 43.5651 17.064C43.6771 17.096 43.8131 17.128 43.9731 17.16L45.2931 17.328V18H40.7091L37.3731 11.928L36.1971 13.056V15.984C36.1971 16.528 36.2211 16.856 36.2691 16.968C36.3171 17.064 36.4691 17.128 36.7251 17.16L38.0451 17.328V18H31.5891V17.328L32.9091 17.16C33.1651 17.128 33.3171 17.064 33.3651 16.968C33.4131 16.856 33.4371 16.528 33.4371 15.984V2.256C33.4371 1.712 33.4131 1.392 33.3651 1.296C33.3171 1.184 33.1651 1.112 32.9091 1.08L31.5891 0.912ZM49.0824 3.768C48.5864 3.768 48.1864 3.616 47.8824 3.312C47.5784 2.992 47.4264 2.584 47.4264 2.088C47.4264 1.592 47.5784 1.192 47.8824 0.887999C48.1864 0.583999 48.5864 0.431999 49.0824 0.431999C49.5624 0.431999 49.9624 0.583999 50.2824 0.887999C50.6024 1.192 50.7624 1.592 50.7624 2.088C50.7624 2.584 50.6024 2.992 50.2824 3.312C49.9624 3.616 49.5624 3.768 49.0824 3.768ZM45.8664 6.504V5.832H50.4744V15.984C50.4744 16.528 50.4984 16.856 50.5464 16.968C50.5944 17.064 50.7464 17.128 51.0024 17.16L52.3224 17.328V18H45.8664V17.328L47.1864 17.16C47.4424 17.128 47.5944 17.064 47.6424 16.968C47.6904 16.856 47.7144 16.528 47.7144 15.984V7.848C47.7144 7.304 47.6904 6.984 47.6424 6.888C47.5944 6.776 47.4424 6.704 47.1864 6.672L45.8664 6.504ZM60.1853 17.328V18H53.2493V17.328L54.5693 17.16C54.8253 17.128 54.9773 17.064 55.0253 16.968C55.0733 16.856 55.0973 16.528 55.0973 15.984V7.848C55.0973 7.304 55.0733 6.984 55.0253 6.888C54.9773 6.776 54.8253 6.704 54.5693 6.672L53.2493 6.504V5.832H55.0973V4.536C55.0973 3.768 55.2253 3.04 55.4813 2.352C55.7533 1.648 56.2013 1.08 56.8253 0.647999C57.4653 0.215999 58.3213 -1.43051e-06 59.3933 -1.43051e-06C60.3693 -1.43051e-06 61.1693 0.167999 61.7933 0.503999C62.4333 0.84 62.8893 1.288 63.1613 1.848C63.4493 2.408 63.5373 3.016 63.4253 3.672L60.7853 4.056C60.9453 2.856 60.8973 2.024 60.6413 1.56C60.4013 1.08 59.9853 0.839999 59.3933 0.839999C59.0733 0.839999 58.7933 0.927999 58.5533 1.104C58.3293 1.28 58.1533 1.6 58.0253 2.064C57.9133 2.512 57.8573 3.176 57.8573 4.056V5.832H61.4573V6.672H57.8573V15.984C57.8573 16.528 57.8813 16.856 57.9293 16.968C57.9773 17.064 58.1293 17.128 58.3853 17.16L60.1853 17.328ZM68.688 19.2C68.32 20.208 67.912 21.016 67.464 21.624C67.032 22.232 66.496 22.672 65.856 22.944C65.216 23.216 64.416 23.352 63.456 23.352V20.712C64.432 20.712 65.216 20.64 65.808 20.496C66.416 20.368 66.88 20.152 67.2 19.848C67.536 19.56 67.784 19.184 67.944 18.72L68.184 18H66.936L63.528 7.848C63.416 7.48 63.32 7.224 63.24 7.08C63.176 6.92 63.096 6.816 63 6.768C62.92 6.72 62.792 6.688 62.616 6.672L61.296 6.504V5.832H67.776V6.504L66.456 6.672C66.264 6.688 66.144 6.752 66.096 6.864C66.064 6.96 66.136 7.288 66.312 7.848L68.928 15.768L71.64 7.752C71.816 7.24 71.888 6.944 71.856 6.864C71.84 6.768 71.712 6.704 71.472 6.672L70.152 6.504V5.832H74.736V6.504L73.416 6.672C73.176 6.704 73.016 6.768 72.936 6.864C72.856 6.96 72.728 7.256 72.552 7.752L68.688 19.2Z"
    fill="white" />
  <path
    d="M17.2938 26.5455C17.2938 25.8636 17.38 25.2197 17.5524 24.6136C17.7247 24.0076 17.9719 23.4394 18.2938 22.9091H18.7541C18.6158 23.1326 18.4889 23.3854 18.3734 23.6676C18.2598 23.9498 18.1613 24.2509 18.0779 24.571C17.9946 24.8911 17.9302 25.2187 17.8848 25.554C17.8393 25.8873 17.8166 26.2178 17.8166 26.5455C17.8166 26.983 17.8563 27.4242 17.9359 27.8693C18.0154 28.3144 18.1253 28.7367 18.2654 29.1364C18.4075 29.536 18.5704 29.8845 18.7541 30.1818H18.2938C17.9719 29.6496 17.7247 29.0805 17.5524 28.4744C17.38 27.8684 17.2938 27.2254 17.2938 26.5455ZM19.9622 29V23.1818H20.4707V25.4688H20.5161C20.573 25.3381 20.6544 25.2036 20.7605 25.0653C20.8684 24.9271 21.0095 24.8116 21.1838 24.7188C21.3599 24.6241 21.5815 24.5767 21.8485 24.5767C22.2065 24.5767 22.5209 24.6714 22.7917 24.8608C23.0625 25.0483 23.2737 25.3116 23.4252 25.6506C23.5767 25.9877 23.6525 26.3807 23.6525 26.8295C23.6525 27.2803 23.5767 27.6752 23.4252 28.0142C23.2756 28.3532 23.0654 28.6174 22.7946 28.8068C22.5256 28.9962 22.2131 29.0909 21.8571 29.0909C21.5919 29.0909 21.3703 29.0436 21.1923 28.9489C21.0161 28.8542 20.8741 28.7377 20.7661 28.5994C20.6582 28.4593 20.5749 28.3229 20.5161 28.1903H20.4536V29H19.9622ZM20.4622 26.821C20.4622 27.1733 20.5142 27.4858 20.6184 27.7585C20.7245 28.0294 20.876 28.2424 21.073 28.3977C21.2718 28.5511 21.5124 28.6278 21.7946 28.6278C22.0843 28.6278 22.3296 28.5483 22.5303 28.3892C22.7311 28.2282 22.8836 28.0114 22.9877 27.7386C23.0919 27.4659 23.144 27.16 23.144 26.821C23.144 26.4858 23.0919 26.1837 22.9877 25.9148C22.8855 25.6458 22.7339 25.4328 22.5332 25.2756C22.3324 25.1165 22.0862 25.0369 21.7946 25.0369C21.5105 25.0369 21.269 25.1136 21.0701 25.267C20.8732 25.4186 20.7226 25.6288 20.6184 25.8977C20.5142 26.1648 20.4622 26.4725 20.4622 26.821ZM24.9593 30.6364C24.8589 30.6364 24.7652 30.6269 24.6781 30.608C24.591 30.589 24.5218 30.5682 24.4707 30.5455L24.6071 30.0994C24.7794 30.1525 24.9328 30.1714 25.0673 30.1562C25.2017 30.143 25.3211 30.0824 25.4252 29.9744C25.5294 29.8684 25.6222 29.7055 25.7036 29.4858L25.8627 29.0426L24.2576 24.6364H24.8059L26.1014 28.3324H26.1411L27.4366 24.6364H27.9849L26.1383 29.6903C26.0607 29.9006 25.965 30.0758 25.8514 30.2159C25.7377 30.358 25.6061 30.4631 25.4565 30.5312C25.3088 30.6013 25.143 30.6364 24.9593 30.6364ZM31.3294 29V23.1818H33.2924C33.6712 23.1818 33.9865 23.2481 34.2384 23.3807C34.4922 23.5133 34.6826 23.6941 34.8095 23.9233C34.9364 24.1525 34.9998 24.4129 34.9998 24.7045C34.9998 24.947 34.9591 25.1544 34.8776 25.3267C34.7962 25.4991 34.6854 25.6383 34.5453 25.7443C34.4051 25.8504 34.2489 25.9271 34.0765 25.9744V26.0199C34.264 26.0331 34.4458 26.0994 34.622 26.2188C34.7981 26.3362 34.943 26.5009 35.0566 26.7131C35.1703 26.9252 35.2271 27.179 35.2271 27.4744C35.2271 27.768 35.1617 28.0303 35.0311 28.2614C34.9004 28.4905 34.6996 28.6714 34.4288 28.804C34.1598 28.9347 33.817 29 33.4004 29H31.3294ZM31.8606 28.5227H33.4004C33.8492 28.5227 34.1807 28.4233 34.3947 28.2244C34.6106 28.0256 34.7186 27.7756 34.7186 27.4744C34.7186 27.2528 34.6646 27.0521 34.5566 26.8722C34.4506 26.6903 34.3 26.5464 34.1049 26.4403C33.9117 26.3343 33.6845 26.2812 33.4231 26.2812H31.8606V28.5227ZM31.8606 25.8097H33.3407C33.5699 25.8097 33.7706 25.7623 33.943 25.6676C34.1153 25.5729 34.2498 25.4422 34.3464 25.2756C34.443 25.1089 34.4913 24.9186 34.4913 24.7045C34.4913 24.3958 34.3909 24.1449 34.1901 23.9517C33.9894 23.7566 33.6901 23.6591 33.2924 23.6591H31.8606V25.8097ZM38.1681 29.0909C37.7609 29.0909 37.4087 28.9962 37.1113 28.8068C36.814 28.6155 36.5839 28.3513 36.421 28.0142C36.26 27.6752 36.1795 27.285 36.1795 26.8438C36.1795 26.4044 36.26 26.0142 36.421 25.6733C36.5839 25.3305 36.8083 25.0625 37.0943 24.8693C37.3821 24.6742 37.7145 24.5767 38.0914 24.5767C38.3282 24.5767 38.5564 24.6203 38.7761 24.7074C38.9958 24.7926 39.1928 24.9242 39.367 25.1023C39.5431 25.2784 39.6823 25.5009 39.7846 25.7699C39.8869 26.0369 39.938 26.3532 39.938 26.7188V26.9688H36.5289V26.5227H39.421C39.421 26.2424 39.3642 25.9905 39.2505 25.767C39.1388 25.5417 38.9825 25.3636 38.7818 25.233C38.5829 25.1023 38.3528 25.0369 38.0914 25.0369C37.8149 25.0369 37.5715 25.1108 37.3613 25.2585C37.1511 25.4062 36.9863 25.6013 36.867 25.8438C36.7496 26.0862 36.6899 26.3513 36.688 26.6392V26.9062C36.688 27.2528 36.7477 27.5559 36.867 27.8153C36.9882 28.0729 37.1596 28.2727 37.3812 28.4148C37.6028 28.5568 37.8651 28.6278 38.1681 28.6278C38.3746 28.6278 38.5554 28.5956 38.7107 28.5312C38.8679 28.4669 38.9996 28.3807 39.1056 28.2727C39.2136 28.1629 39.295 28.0426 39.3499 27.9119L39.8301 28.0682C39.7638 28.2519 39.6549 28.4214 39.5034 28.5767C39.3537 28.732 39.1662 28.857 38.9409 28.9517C38.7174 29.0445 38.4598 29.0909 38.1681 29.0909ZM41.558 26.2727V29H41.0524V24.6364H41.5438V25.321H41.5893C41.6916 25.0975 41.8507 24.9186 42.0666 24.7841C42.2844 24.6477 42.5533 24.5795 42.8734 24.5795C43.1669 24.5795 43.4245 24.6411 43.6461 24.7642C43.8696 24.8854 44.0429 25.0644 44.166 25.3011C44.291 25.5379 44.3535 25.8286 44.3535 26.1733V29H43.8478V26.2045C43.8478 25.8466 43.7474 25.5634 43.5467 25.3551C43.3478 25.1468 43.0808 25.0426 42.7455 25.0426C42.5164 25.0426 42.3128 25.0919 42.1348 25.1903C41.9567 25.2888 41.8156 25.4309 41.7115 25.6165C41.6092 25.8002 41.558 26.0189 41.558 26.2727ZM47.3897 29.0909C46.9996 29.0909 46.6596 28.9934 46.3698 28.7983C46.082 28.6032 45.8585 28.3362 45.6994 27.9972C45.5403 27.6581 45.4607 27.2718 45.4607 26.8381C45.4607 26.4006 45.5412 26.0114 45.7022 25.6705C45.8651 25.3295 46.0905 25.0625 46.3784 24.8693C46.6662 24.6742 47.0005 24.5767 47.3812 24.5767C47.6729 24.5767 47.9371 24.6335 48.1738 24.7472C48.4106 24.8589 48.6056 25.017 48.759 25.2216C48.9143 25.4242 49.0119 25.661 49.0517 25.9318H48.5403C48.4873 25.6856 48.3594 25.4754 48.1568 25.3011C47.956 25.125 47.7003 25.0369 47.3897 25.0369C47.1113 25.0369 46.8651 25.1127 46.6511 25.2642C46.4371 25.4138 46.2695 25.6231 46.1482 25.892C46.0289 26.1591 45.9693 26.4687 45.9693 26.821C45.9693 27.1752 46.028 27.4886 46.1454 27.7614C46.2628 28.0322 46.4276 28.2443 46.6397 28.3977C46.8537 28.5511 47.1037 28.6278 47.3897 28.6278C47.5829 28.6278 47.759 28.5919 47.9181 28.5199C48.0791 28.446 48.2136 28.3419 48.3215 28.2074C48.4314 28.0729 48.5053 27.9129 48.5431 27.7273H49.0545C49.0166 27.9905 48.9229 28.2254 48.7732 28.4318C48.6255 28.6364 48.4333 28.7973 48.1965 28.9148C47.9617 29.0322 47.6928 29.0909 47.3897 29.0909ZM51.8343 29.0909C51.4574 29.0909 51.1241 28.9953 50.8343 28.804C50.5464 28.6127 50.3211 28.3485 50.1582 28.0114C49.9953 27.6723 49.9139 27.2812 49.9139 26.8381C49.9139 26.3911 49.9953 25.9981 50.1582 25.6591C50.3211 25.3182 50.5464 25.053 50.8343 24.8636C51.1241 24.6723 51.4574 24.5767 51.8343 24.5767C52.2112 24.5767 52.5436 24.6723 52.8315 24.8636C53.1194 25.0549 53.3447 25.3201 53.5076 25.6591C53.6724 25.9981 53.7548 26.3911 53.7548 26.8381C53.7548 27.2812 53.6733 27.6723 53.5105 28.0114C53.3476 28.3485 53.1213 28.6127 52.8315 28.804C52.5436 28.9953 52.2112 29.0909 51.8343 29.0909ZM51.8343 28.6278C52.1374 28.6278 52.394 28.5464 52.6042 28.3835C52.8144 28.2206 52.9735 28.0038 53.0815 27.733C53.1913 27.4621 53.2463 27.1638 53.2463 26.8381C53.2463 26.5123 53.1913 26.2131 53.0815 25.9403C52.9735 25.6676 52.8144 25.4489 52.6042 25.2841C52.394 25.1193 52.1374 25.0369 51.8343 25.0369C51.5332 25.0369 51.2766 25.1193 51.0644 25.2841C50.8542 25.4489 50.6942 25.6676 50.5843 25.9403C50.4764 26.2131 50.4224 26.5123 50.4224 26.8381C50.4224 27.1638 50.4764 27.4621 50.5843 27.733C50.6942 28.0038 50.8542 28.2206 51.0644 28.3835C51.2747 28.5464 51.5313 28.6278 51.8343 28.6278ZM57.7967 25.5938L57.3336 25.7244C57.2882 25.5937 57.2238 25.4754 57.1404 25.3693C57.0571 25.2633 56.9482 25.179 56.8137 25.1165C56.6812 25.054 56.5164 25.0227 56.3194 25.0227C56.024 25.0227 55.7815 25.0928 55.5921 25.233C55.4027 25.3731 55.308 25.554 55.308 25.7756C55.308 25.9631 55.3724 26.1155 55.5012 26.233C55.6319 26.3485 55.8327 26.4403 56.1035 26.5085L56.7626 26.6705C57.1281 26.7595 57.4018 26.9006 57.5836 27.0938C57.7673 27.2869 57.8592 27.5294 57.8592 27.821C57.8592 28.0672 57.791 28.286 57.6546 28.4773C57.5183 28.6686 57.3279 28.8191 57.0836 28.929C56.8412 29.0369 56.5599 29.0909 56.2399 29.0909C55.8137 29.0909 55.4624 28.9953 55.1859 28.804C54.9094 28.6108 54.7323 28.3324 54.6546 27.9688L55.1404 27.8494C55.2029 28.1089 55.3251 28.3049 55.5069 28.4375C55.6906 28.5701 55.9321 28.6364 56.2313 28.6364C56.5666 28.6364 56.8346 28.5616 57.0353 28.4119C57.2361 28.2604 57.3365 28.071 57.3365 27.8438C57.3365 27.6676 57.2777 27.5199 57.1603 27.4006C57.0429 27.2794 56.8649 27.1903 56.6262 27.1335L55.9132 26.9631C55.5344 26.8722 55.2541 26.7282 55.0723 26.5312C54.8904 26.3343 54.7995 26.09 54.7995 25.7983C54.7995 25.5578 54.8649 25.3466 54.9955 25.1648C55.1262 24.9811 55.3062 24.8371 55.5353 24.733C55.7645 24.6288 56.0258 24.5767 56.3194 24.5767C56.719 24.5767 57.0382 24.6676 57.2768 24.8494C57.5173 25.0294 57.6906 25.2775 57.7967 25.5938ZM60.1937 26.5455C60.1937 27.2273 60.1075 27.8712 59.9352 28.4773C59.7628 29.0833 59.5157 29.6515 59.1937 30.1818H58.7335C58.8717 29.9583 58.9977 29.7055 59.1113 29.4233C59.2268 29.1411 59.3263 28.84 59.4096 28.5199C59.4929 28.1998 59.5573 27.8722 59.6028 27.5369C59.6482 27.2017 59.671 26.8712 59.671 26.5455C59.671 26.108 59.6312 25.6667 59.5517 25.2216C59.4721 24.7765 59.3613 24.3542 59.2193 23.9545C59.0791 23.5549 58.9172 23.2064 58.7335 22.9091H59.1937C59.5157 23.4413 59.7628 24.0104 59.9352 24.6165C60.1075 25.2225 60.1937 25.8655 60.1937 26.5455Z"
    fill="white" />
</svg>